<mxfile host="Electron" agent="Mozilla/5.0 (Windows NT 10.0; Win64; x64) AppleWebKit/537.36 (KHTML, like Gecko) draw.io/24.7.17 Chrome/128.0.6613.36 Electron/32.0.1 Safari/537.36" version="24.7.17">
  <diagram id="C5RBs43oDa-KdzZeNtuy" name="Page-1">
    <mxGraphModel dx="2398" dy="938" grid="1" gridSize="10" guides="1" tooltips="1" connect="1" arrows="1" fold="1" page="1" pageScale="1" pageWidth="827" pageHeight="1169" math="0" shadow="0">
      <root>
        <mxCell id="WIyWlLk6GJQsqaUBKTNV-0" />
        <mxCell id="WIyWlLk6GJQsqaUBKTNV-1" parent="WIyWlLk6GJQsqaUBKTNV-0" />
        <mxCell id="mcTvDGQDYKTKNauA4UsY-3" value="" style="edgeStyle=orthogonalEdgeStyle;rounded=0;orthogonalLoop=1;jettySize=auto;html=1;" parent="WIyWlLk6GJQsqaUBKTNV-1" source="mcTvDGQDYKTKNauA4UsY-1" target="mcTvDGQDYKTKNauA4UsY-2" edge="1">
          <mxGeometry relative="1" as="geometry" />
        </mxCell>
        <mxCell id="mcTvDGQDYKTKNauA4UsY-1" value="Start" style="ellipse;whiteSpace=wrap;html=1;" parent="WIyWlLk6GJQsqaUBKTNV-1" vertex="1">
          <mxGeometry x="354" y="50" width="120" height="80" as="geometry" />
        </mxCell>
        <mxCell id="mcTvDGQDYKTKNauA4UsY-5" value="" style="edgeStyle=orthogonalEdgeStyle;rounded=0;orthogonalLoop=1;jettySize=auto;html=1;" parent="WIyWlLk6GJQsqaUBKTNV-1" source="mcTvDGQDYKTKNauA4UsY-2" target="mcTvDGQDYKTKNauA4UsY-4" edge="1">
          <mxGeometry relative="1" as="geometry" />
        </mxCell>
        <mxCell id="mcTvDGQDYKTKNauA4UsY-2" value="===SISTEM TOKO HIJAB===&lt;div&gt;1. REGISTRASI&lt;/div&gt;&lt;div&gt;2. LOGIN&lt;/div&gt;&lt;div&gt;3. KELUAR&lt;/div&gt;" style="shape=parallelogram;perimeter=parallelogramPerimeter;whiteSpace=wrap;html=1;fixedSize=1;" parent="WIyWlLk6GJQsqaUBKTNV-1" vertex="1">
          <mxGeometry x="316" y="220" width="196" height="130" as="geometry" />
        </mxCell>
        <mxCell id="mcTvDGQDYKTKNauA4UsY-7" value="" style="edgeStyle=orthogonalEdgeStyle;rounded=0;orthogonalLoop=1;jettySize=auto;html=1;" parent="WIyWlLk6GJQsqaUBKTNV-1" source="mcTvDGQDYKTKNauA4UsY-4" target="mcTvDGQDYKTKNauA4UsY-6" edge="1">
          <mxGeometry relative="1" as="geometry" />
        </mxCell>
        <mxCell id="mcTvDGQDYKTKNauA4UsY-9" value="" style="edgeStyle=orthogonalEdgeStyle;rounded=0;orthogonalLoop=1;jettySize=auto;html=1;" parent="WIyWlLk6GJQsqaUBKTNV-1" source="mcTvDGQDYKTKNauA4UsY-4" target="mcTvDGQDYKTKNauA4UsY-8" edge="1">
          <mxGeometry relative="1" as="geometry" />
        </mxCell>
        <mxCell id="mcTvDGQDYKTKNauA4UsY-4" value="Pilihan&amp;nbsp; == 1" style="rhombus;whiteSpace=wrap;html=1;" parent="WIyWlLk6GJQsqaUBKTNV-1" vertex="1">
          <mxGeometry x="356" y="460" width="116" height="105" as="geometry" />
        </mxCell>
        <mxCell id="mcTvDGQDYKTKNauA4UsY-54" style="edgeStyle=orthogonalEdgeStyle;rounded=0;orthogonalLoop=1;jettySize=auto;html=1;entryX=1;entryY=0.5;entryDx=0;entryDy=0;" parent="WIyWlLk6GJQsqaUBKTNV-1" source="mcTvDGQDYKTKNauA4UsY-6" target="mcTvDGQDYKTKNauA4UsY-2" edge="1">
          <mxGeometry relative="1" as="geometry">
            <Array as="points">
              <mxPoint x="650" y="285" />
            </Array>
          </mxGeometry>
        </mxCell>
        <mxCell id="mcTvDGQDYKTKNauA4UsY-6" value="===REGISTRASI===&lt;div&gt;Username :&lt;/div&gt;&lt;div&gt;Password :&lt;/div&gt;&lt;div&gt;Admin/Pengguna Biasa :&lt;/div&gt;" style="shape=parallelogram;perimeter=parallelogramPerimeter;whiteSpace=wrap;html=1;fixedSize=1;" parent="WIyWlLk6GJQsqaUBKTNV-1" vertex="1">
          <mxGeometry x="550" y="468.75" width="190" height="87.5" as="geometry" />
        </mxCell>
        <mxCell id="mcTvDGQDYKTKNauA4UsY-11" value="" style="edgeStyle=orthogonalEdgeStyle;rounded=0;orthogonalLoop=1;jettySize=auto;html=1;" parent="WIyWlLk6GJQsqaUBKTNV-1" source="mcTvDGQDYKTKNauA4UsY-8" target="mcTvDGQDYKTKNauA4UsY-10" edge="1">
          <mxGeometry relative="1" as="geometry" />
        </mxCell>
        <mxCell id="mcTvDGQDYKTKNauA4UsY-96" value="" style="edgeStyle=orthogonalEdgeStyle;rounded=0;orthogonalLoop=1;jettySize=auto;html=1;" parent="WIyWlLk6GJQsqaUBKTNV-1" source="mcTvDGQDYKTKNauA4UsY-8" target="mcTvDGQDYKTKNauA4UsY-94" edge="1">
          <mxGeometry relative="1" as="geometry" />
        </mxCell>
        <mxCell id="mcTvDGQDYKTKNauA4UsY-8" value="Pilihan == 2" style="rhombus;whiteSpace=wrap;html=1;" parent="WIyWlLk6GJQsqaUBKTNV-1" vertex="1">
          <mxGeometry x="41" y="580" width="116" height="105" as="geometry" />
        </mxCell>
        <mxCell id="mcTvDGQDYKTKNauA4UsY-13" value="" style="edgeStyle=orthogonalEdgeStyle;rounded=0;orthogonalLoop=1;jettySize=auto;html=1;" parent="WIyWlLk6GJQsqaUBKTNV-1" source="mcTvDGQDYKTKNauA4UsY-10" target="mcTvDGQDYKTKNauA4UsY-12" edge="1">
          <mxGeometry relative="1" as="geometry" />
        </mxCell>
        <mxCell id="mcTvDGQDYKTKNauA4UsY-10" value="===LOGIN===&lt;div&gt;Username :&lt;/div&gt;&lt;div&gt;Password :&lt;/div&gt;" style="shape=parallelogram;perimeter=parallelogramPerimeter;whiteSpace=wrap;html=1;fixedSize=1;" parent="WIyWlLk6GJQsqaUBKTNV-1" vertex="1">
          <mxGeometry x="318.25" y="598.75" width="146" height="67.5" as="geometry" />
        </mxCell>
        <mxCell id="mcTvDGQDYKTKNauA4UsY-17" value="" style="edgeStyle=orthogonalEdgeStyle;rounded=0;orthogonalLoop=1;jettySize=auto;html=1;" parent="WIyWlLk6GJQsqaUBKTNV-1" source="mcTvDGQDYKTKNauA4UsY-12" target="mcTvDGQDYKTKNauA4UsY-16" edge="1">
          <mxGeometry relative="1" as="geometry" />
        </mxCell>
        <mxCell id="mcTvDGQDYKTKNauA4UsY-85" value="" style="edgeStyle=orthogonalEdgeStyle;rounded=0;orthogonalLoop=1;jettySize=auto;html=1;" parent="WIyWlLk6GJQsqaUBKTNV-1" source="mcTvDGQDYKTKNauA4UsY-12" target="mcTvDGQDYKTKNauA4UsY-84" edge="1">
          <mxGeometry relative="1" as="geometry" />
        </mxCell>
        <mxCell id="mcTvDGQDYKTKNauA4UsY-12" value="Berhasil" style="rhombus;whiteSpace=wrap;html=1;" parent="WIyWlLk6GJQsqaUBKTNV-1" vertex="1">
          <mxGeometry x="330" y="730" width="121" height="100" as="geometry" />
        </mxCell>
        <mxCell id="mcTvDGQDYKTKNauA4UsY-19" value="" style="edgeStyle=orthogonalEdgeStyle;rounded=0;orthogonalLoop=1;jettySize=auto;html=1;" parent="WIyWlLk6GJQsqaUBKTNV-1" source="mcTvDGQDYKTKNauA4UsY-16" target="mcTvDGQDYKTKNauA4UsY-18" edge="1">
          <mxGeometry relative="1" as="geometry" />
        </mxCell>
        <mxCell id="mcTvDGQDYKTKNauA4UsY-58" value="" style="edgeStyle=orthogonalEdgeStyle;rounded=0;orthogonalLoop=1;jettySize=auto;html=1;" parent="WIyWlLk6GJQsqaUBKTNV-1" source="mcTvDGQDYKTKNauA4UsY-16" target="mcTvDGQDYKTKNauA4UsY-57" edge="1">
          <mxGeometry relative="1" as="geometry" />
        </mxCell>
        <mxCell id="mcTvDGQDYKTKNauA4UsY-16" value="Admin" style="rhombus;whiteSpace=wrap;html=1;" parent="WIyWlLk6GJQsqaUBKTNV-1" vertex="1">
          <mxGeometry x="494.5" y="730" width="121" height="100" as="geometry" />
        </mxCell>
        <mxCell id="mcTvDGQDYKTKNauA4UsY-21" value="" style="edgeStyle=orthogonalEdgeStyle;rounded=0;orthogonalLoop=1;jettySize=auto;html=1;" parent="WIyWlLk6GJQsqaUBKTNV-1" source="mcTvDGQDYKTKNauA4UsY-18" target="mcTvDGQDYKTKNauA4UsY-20" edge="1">
          <mxGeometry relative="1" as="geometry" />
        </mxCell>
        <mxCell id="mcTvDGQDYKTKNauA4UsY-18" value="===MENU ADMIN TOKO HIJAB===&lt;div&gt;1. TAMBAHKAN PRODUK HIJAB&lt;/div&gt;&lt;div&gt;2. TAMPILKAN PRODUK HIJAB&lt;/div&gt;&lt;div&gt;3. UBAH PRODUK HIJAB&lt;/div&gt;&lt;div&gt;4. HAPUS PRODUK HIJAB&lt;/div&gt;&lt;div&gt;5. KELUAR&lt;/div&gt;" style="shape=parallelogram;perimeter=parallelogramPerimeter;whiteSpace=wrap;html=1;fixedSize=1;" parent="WIyWlLk6GJQsqaUBKTNV-1" vertex="1">
          <mxGeometry x="710" y="710" width="221" height="140" as="geometry" />
        </mxCell>
        <mxCell id="mcTvDGQDYKTKNauA4UsY-23" value="" style="edgeStyle=orthogonalEdgeStyle;rounded=0;orthogonalLoop=1;jettySize=auto;html=1;" parent="WIyWlLk6GJQsqaUBKTNV-1" source="mcTvDGQDYKTKNauA4UsY-20" target="mcTvDGQDYKTKNauA4UsY-22" edge="1">
          <mxGeometry relative="1" as="geometry" />
        </mxCell>
        <mxCell id="mcTvDGQDYKTKNauA4UsY-25" value="" style="edgeStyle=orthogonalEdgeStyle;rounded=0;orthogonalLoop=1;jettySize=auto;html=1;" parent="WIyWlLk6GJQsqaUBKTNV-1" source="mcTvDGQDYKTKNauA4UsY-20" target="mcTvDGQDYKTKNauA4UsY-24" edge="1">
          <mxGeometry relative="1" as="geometry" />
        </mxCell>
        <mxCell id="mcTvDGQDYKTKNauA4UsY-20" value="PilihanAdmin == 1" style="rhombus;whiteSpace=wrap;html=1;" parent="WIyWlLk6GJQsqaUBKTNV-1" vertex="1">
          <mxGeometry x="755.75" y="950" width="129.5" height="120" as="geometry" />
        </mxCell>
        <mxCell id="mcTvDGQDYKTKNauA4UsY-44" style="edgeStyle=orthogonalEdgeStyle;rounded=0;orthogonalLoop=1;jettySize=auto;html=1;exitX=1;exitY=0.5;exitDx=0;exitDy=0;entryX=1;entryY=0.5;entryDx=0;entryDy=0;" parent="WIyWlLk6GJQsqaUBKTNV-1" source="mcTvDGQDYKTKNauA4UsY-22" target="mcTvDGQDYKTKNauA4UsY-18" edge="1">
          <mxGeometry relative="1" as="geometry">
            <Array as="points">
              <mxPoint x="1240" y="1010" />
              <mxPoint x="1240" y="780" />
            </Array>
          </mxGeometry>
        </mxCell>
        <mxCell id="mcTvDGQDYKTKNauA4UsY-22" value="===TAMBAHKAN PRODUK HIJAB===&lt;div&gt;Nama :&lt;/div&gt;&lt;div&gt;Warna :&lt;/div&gt;&lt;div&gt;Stok :&lt;/div&gt;&lt;div&gt;Harga :&lt;/div&gt;" style="shape=parallelogram;perimeter=parallelogramPerimeter;whiteSpace=wrap;html=1;fixedSize=1;" parent="WIyWlLk6GJQsqaUBKTNV-1" vertex="1">
          <mxGeometry x="931" y="950" width="199.5" height="120" as="geometry" />
        </mxCell>
        <mxCell id="mcTvDGQDYKTKNauA4UsY-27" value="" style="edgeStyle=orthogonalEdgeStyle;rounded=0;orthogonalLoop=1;jettySize=auto;html=1;" parent="WIyWlLk6GJQsqaUBKTNV-1" source="mcTvDGQDYKTKNauA4UsY-24" target="mcTvDGQDYKTKNauA4UsY-26" edge="1">
          <mxGeometry relative="1" as="geometry" />
        </mxCell>
        <mxCell id="mcTvDGQDYKTKNauA4UsY-29" value="" style="edgeStyle=orthogonalEdgeStyle;rounded=0;orthogonalLoop=1;jettySize=auto;html=1;" parent="WIyWlLk6GJQsqaUBKTNV-1" source="mcTvDGQDYKTKNauA4UsY-24" target="mcTvDGQDYKTKNauA4UsY-28" edge="1">
          <mxGeometry relative="1" as="geometry" />
        </mxCell>
        <mxCell id="mcTvDGQDYKTKNauA4UsY-24" value="PilihanAdmin == 2" style="rhombus;whiteSpace=wrap;html=1;" parent="WIyWlLk6GJQsqaUBKTNV-1" vertex="1">
          <mxGeometry x="750.75" y="1120" width="139.5" height="120" as="geometry" />
        </mxCell>
        <mxCell id="mcTvDGQDYKTKNauA4UsY-45" style="edgeStyle=orthogonalEdgeStyle;rounded=0;orthogonalLoop=1;jettySize=auto;html=1;exitX=1;exitY=0.5;exitDx=0;exitDy=0;" parent="WIyWlLk6GJQsqaUBKTNV-1" source="mcTvDGQDYKTKNauA4UsY-26" edge="1">
          <mxGeometry relative="1" as="geometry">
            <mxPoint x="920" y="780" as="targetPoint" />
            <Array as="points">
              <mxPoint x="1240" y="1180" />
              <mxPoint x="1240" y="780" />
            </Array>
          </mxGeometry>
        </mxCell>
        <mxCell id="mcTvDGQDYKTKNauA4UsY-26" value="Menampilkan daftar produk hijab" style="shape=parallelogram;perimeter=parallelogramPerimeter;whiteSpace=wrap;html=1;fixedSize=1;" parent="WIyWlLk6GJQsqaUBKTNV-1" vertex="1">
          <mxGeometry x="980" y="1140" width="210" height="80" as="geometry" />
        </mxCell>
        <mxCell id="mcTvDGQDYKTKNauA4UsY-33" value="" style="edgeStyle=orthogonalEdgeStyle;rounded=0;orthogonalLoop=1;jettySize=auto;html=1;" parent="WIyWlLk6GJQsqaUBKTNV-1" source="mcTvDGQDYKTKNauA4UsY-28" target="mcTvDGQDYKTKNauA4UsY-32" edge="1">
          <mxGeometry relative="1" as="geometry" />
        </mxCell>
        <mxCell id="mcTvDGQDYKTKNauA4UsY-35" value="" style="edgeStyle=orthogonalEdgeStyle;rounded=0;orthogonalLoop=1;jettySize=auto;html=1;" parent="WIyWlLk6GJQsqaUBKTNV-1" source="mcTvDGQDYKTKNauA4UsY-28" target="mcTvDGQDYKTKNauA4UsY-34" edge="1">
          <mxGeometry relative="1" as="geometry" />
        </mxCell>
        <mxCell id="mcTvDGQDYKTKNauA4UsY-28" value="PilihanAdmin == 3" style="rhombus;whiteSpace=wrap;html=1;" parent="WIyWlLk6GJQsqaUBKTNV-1" vertex="1">
          <mxGeometry x="750.75" y="1310" width="139.5" height="120" as="geometry" />
        </mxCell>
        <mxCell id="mcTvDGQDYKTKNauA4UsY-46" style="edgeStyle=orthogonalEdgeStyle;rounded=0;orthogonalLoop=1;jettySize=auto;html=1;" parent="WIyWlLk6GJQsqaUBKTNV-1" source="mcTvDGQDYKTKNauA4UsY-32" edge="1">
          <mxGeometry relative="1" as="geometry">
            <mxPoint x="920" y="780" as="targetPoint" />
            <Array as="points">
              <mxPoint x="1240" y="1370" />
              <mxPoint x="1240" y="780" />
            </Array>
          </mxGeometry>
        </mxCell>
        <mxCell id="mcTvDGQDYKTKNauA4UsY-32" value="Memasukan indek produk&lt;div&gt;hijab yang ingin dirubah&lt;/div&gt;" style="shape=parallelogram;perimeter=parallelogramPerimeter;whiteSpace=wrap;html=1;fixedSize=1;" parent="WIyWlLk6GJQsqaUBKTNV-1" vertex="1">
          <mxGeometry x="980" y="1330" width="180" height="80" as="geometry" />
        </mxCell>
        <mxCell id="mcTvDGQDYKTKNauA4UsY-37" value="" style="edgeStyle=orthogonalEdgeStyle;rounded=0;orthogonalLoop=1;jettySize=auto;html=1;" parent="WIyWlLk6GJQsqaUBKTNV-1" source="mcTvDGQDYKTKNauA4UsY-34" target="mcTvDGQDYKTKNauA4UsY-36" edge="1">
          <mxGeometry relative="1" as="geometry" />
        </mxCell>
        <mxCell id="mcTvDGQDYKTKNauA4UsY-39" value="" style="edgeStyle=orthogonalEdgeStyle;rounded=0;orthogonalLoop=1;jettySize=auto;html=1;" parent="WIyWlLk6GJQsqaUBKTNV-1" source="mcTvDGQDYKTKNauA4UsY-34" target="mcTvDGQDYKTKNauA4UsY-38" edge="1">
          <mxGeometry relative="1" as="geometry" />
        </mxCell>
        <mxCell id="mcTvDGQDYKTKNauA4UsY-34" value="PilihanAdmin == 4" style="rhombus;whiteSpace=wrap;html=1;" parent="WIyWlLk6GJQsqaUBKTNV-1" vertex="1">
          <mxGeometry x="750.75" y="1510" width="139.5" height="120" as="geometry" />
        </mxCell>
        <mxCell id="mcTvDGQDYKTKNauA4UsY-47" style="edgeStyle=orthogonalEdgeStyle;rounded=0;orthogonalLoop=1;jettySize=auto;html=1;exitX=1;exitY=0.5;exitDx=0;exitDy=0;entryX=1;entryY=0.5;entryDx=0;entryDy=0;" parent="WIyWlLk6GJQsqaUBKTNV-1" source="mcTvDGQDYKTKNauA4UsY-36" target="mcTvDGQDYKTKNauA4UsY-18" edge="1">
          <mxGeometry relative="1" as="geometry">
            <Array as="points">
              <mxPoint x="1240" y="1570" />
              <mxPoint x="1240" y="780" />
            </Array>
          </mxGeometry>
        </mxCell>
        <mxCell id="mcTvDGQDYKTKNauA4UsY-36" value="Memasukkan indek produk&lt;div&gt;hijab yang ingin dihapus&lt;/div&gt;" style="shape=parallelogram;perimeter=parallelogramPerimeter;whiteSpace=wrap;html=1;fixedSize=1;" parent="WIyWlLk6GJQsqaUBKTNV-1" vertex="1">
          <mxGeometry x="970" y="1530" width="180" height="80" as="geometry" />
        </mxCell>
        <mxCell id="mcTvDGQDYKTKNauA4UsY-41" value="" style="edgeStyle=orthogonalEdgeStyle;rounded=0;orthogonalLoop=1;jettySize=auto;html=1;" parent="WIyWlLk6GJQsqaUBKTNV-1" source="mcTvDGQDYKTKNauA4UsY-38" target="mcTvDGQDYKTKNauA4UsY-40" edge="1">
          <mxGeometry relative="1" as="geometry" />
        </mxCell>
        <mxCell id="mcTvDGQDYKTKNauA4UsY-43" value="" style="edgeStyle=orthogonalEdgeStyle;rounded=0;orthogonalLoop=1;jettySize=auto;html=1;" parent="WIyWlLk6GJQsqaUBKTNV-1" source="mcTvDGQDYKTKNauA4UsY-38" target="mcTvDGQDYKTKNauA4UsY-42" edge="1">
          <mxGeometry relative="1" as="geometry" />
        </mxCell>
        <mxCell id="mcTvDGQDYKTKNauA4UsY-38" value="PilihanAdmin == 5" style="rhombus;whiteSpace=wrap;html=1;" parent="WIyWlLk6GJQsqaUBKTNV-1" vertex="1">
          <mxGeometry x="750.75" y="1710" width="139.5" height="120" as="geometry" />
        </mxCell>
        <mxCell id="mcTvDGQDYKTKNauA4UsY-126" style="edgeStyle=orthogonalEdgeStyle;rounded=0;orthogonalLoop=1;jettySize=auto;html=1;exitX=0.5;exitY=1;exitDx=0;exitDy=0;entryX=1;entryY=0.5;entryDx=0;entryDy=0;" parent="WIyWlLk6GJQsqaUBKTNV-1" source="mcTvDGQDYKTKNauA4UsY-40" target="mcTvDGQDYKTKNauA4UsY-2" edge="1">
          <mxGeometry relative="1" as="geometry">
            <Array as="points">
              <mxPoint x="585" y="2070" />
              <mxPoint x="1410" y="2070" />
              <mxPoint x="1410" y="285" />
            </Array>
          </mxGeometry>
        </mxCell>
        <mxCell id="mcTvDGQDYKTKNauA4UsY-40" value="Keluar dari menu admin toko hijab" style="shape=parallelogram;perimeter=parallelogramPerimeter;whiteSpace=wrap;html=1;fixedSize=1;" parent="WIyWlLk6GJQsqaUBKTNV-1" vertex="1">
          <mxGeometry x="495.5" y="1725" width="180" height="90" as="geometry" />
        </mxCell>
        <mxCell id="mcTvDGQDYKTKNauA4UsY-125" style="edgeStyle=orthogonalEdgeStyle;rounded=0;orthogonalLoop=1;jettySize=auto;html=1;exitX=1;exitY=0.5;exitDx=0;exitDy=0;entryX=1;entryY=0.5;entryDx=0;entryDy=0;" parent="WIyWlLk6GJQsqaUBKTNV-1" source="mcTvDGQDYKTKNauA4UsY-42" target="mcTvDGQDYKTKNauA4UsY-18" edge="1">
          <mxGeometry relative="1" as="geometry">
            <Array as="points">
              <mxPoint x="1240" y="1965" />
              <mxPoint x="1240" y="780" />
            </Array>
          </mxGeometry>
        </mxCell>
        <mxCell id="mcTvDGQDYKTKNauA4UsY-42" value="&quot;Pilihan tidak valid&quot;" style="shape=parallelogram;perimeter=parallelogramPerimeter;whiteSpace=wrap;html=1;fixedSize=1;" parent="WIyWlLk6GJQsqaUBKTNV-1" vertex="1">
          <mxGeometry x="745.75" y="1940" width="149.5" height="50" as="geometry" />
        </mxCell>
        <mxCell id="mcTvDGQDYKTKNauA4UsY-60" value="" style="edgeStyle=orthogonalEdgeStyle;rounded=0;orthogonalLoop=1;jettySize=auto;html=1;" parent="WIyWlLk6GJQsqaUBKTNV-1" source="mcTvDGQDYKTKNauA4UsY-57" target="mcTvDGQDYKTKNauA4UsY-59" edge="1">
          <mxGeometry relative="1" as="geometry" />
        </mxCell>
        <mxCell id="mcTvDGQDYKTKNauA4UsY-57" value="===MENU PENGGUNA BIASA TOKO HIJAB===&lt;div&gt;1. MENAMPILKAN PRODUK HIJAB&lt;br&gt;2. KELUAR&lt;/div&gt;" style="shape=parallelogram;perimeter=parallelogramPerimeter;whiteSpace=wrap;html=1;fixedSize=1;" parent="WIyWlLk6GJQsqaUBKTNV-1" vertex="1">
          <mxGeometry x="410" y="880" width="290" height="70" as="geometry" />
        </mxCell>
        <mxCell id="mcTvDGQDYKTKNauA4UsY-62" value="" style="edgeStyle=orthogonalEdgeStyle;rounded=0;orthogonalLoop=1;jettySize=auto;html=1;" parent="WIyWlLk6GJQsqaUBKTNV-1" source="mcTvDGQDYKTKNauA4UsY-59" target="mcTvDGQDYKTKNauA4UsY-61" edge="1">
          <mxGeometry relative="1" as="geometry" />
        </mxCell>
        <mxCell id="mcTvDGQDYKTKNauA4UsY-64" value="" style="edgeStyle=orthogonalEdgeStyle;rounded=0;orthogonalLoop=1;jettySize=auto;html=1;" parent="WIyWlLk6GJQsqaUBKTNV-1" source="mcTvDGQDYKTKNauA4UsY-59" target="mcTvDGQDYKTKNauA4UsY-63" edge="1">
          <mxGeometry relative="1" as="geometry" />
        </mxCell>
        <mxCell id="mcTvDGQDYKTKNauA4UsY-59" value="PilihanPengguna&amp;nbsp;&lt;div&gt;== 1&lt;/div&gt;" style="rhombus;whiteSpace=wrap;html=1;" parent="WIyWlLk6GJQsqaUBKTNV-1" vertex="1">
          <mxGeometry x="489.5" y="1029.5" width="131" height="110.5" as="geometry" />
        </mxCell>
        <mxCell id="mcTvDGQDYKTKNauA4UsY-83" style="edgeStyle=orthogonalEdgeStyle;rounded=0;orthogonalLoop=1;jettySize=auto;html=1;exitX=0;exitY=0.5;exitDx=0;exitDy=0;entryX=0;entryY=0.5;entryDx=0;entryDy=0;" parent="WIyWlLk6GJQsqaUBKTNV-1" source="mcTvDGQDYKTKNauA4UsY-61" target="mcTvDGQDYKTKNauA4UsY-57" edge="1">
          <mxGeometry relative="1" as="geometry">
            <Array as="points">
              <mxPoint x="280" y="1085" />
              <mxPoint x="280" y="915" />
            </Array>
          </mxGeometry>
        </mxCell>
        <mxCell id="mcTvDGQDYKTKNauA4UsY-61" value="Menampilkan daftar produk hijab" style="shape=parallelogram;perimeter=parallelogramPerimeter;whiteSpace=wrap;html=1;fixedSize=1;" parent="WIyWlLk6GJQsqaUBKTNV-1" vertex="1">
          <mxGeometry x="308.25" y="1052.3800000000003" width="132" height="64.75" as="geometry" />
        </mxCell>
        <mxCell id="mcTvDGQDYKTKNauA4UsY-66" value="" style="edgeStyle=orthogonalEdgeStyle;rounded=0;orthogonalLoop=1;jettySize=auto;html=1;" parent="WIyWlLk6GJQsqaUBKTNV-1" source="mcTvDGQDYKTKNauA4UsY-63" target="mcTvDGQDYKTKNauA4UsY-65" edge="1">
          <mxGeometry relative="1" as="geometry" />
        </mxCell>
        <mxCell id="mcTvDGQDYKTKNauA4UsY-68" value="" style="edgeStyle=orthogonalEdgeStyle;rounded=0;orthogonalLoop=1;jettySize=auto;html=1;" parent="WIyWlLk6GJQsqaUBKTNV-1" source="mcTvDGQDYKTKNauA4UsY-63" target="mcTvDGQDYKTKNauA4UsY-67" edge="1">
          <mxGeometry relative="1" as="geometry" />
        </mxCell>
        <mxCell id="mcTvDGQDYKTKNauA4UsY-63" value="PilihanPengguna&amp;nbsp;&lt;div&gt;==2&lt;/div&gt;" style="rhombus;whiteSpace=wrap;html=1;" parent="WIyWlLk6GJQsqaUBKTNV-1" vertex="1">
          <mxGeometry x="489.5" y="1219.5" width="131" height="110.5" as="geometry" />
        </mxCell>
        <mxCell id="mcTvDGQDYKTKNauA4UsY-81" style="edgeStyle=orthogonalEdgeStyle;rounded=0;orthogonalLoop=1;jettySize=auto;html=1;exitX=0.5;exitY=1;exitDx=0;exitDy=0;entryX=1;entryY=0.5;entryDx=0;entryDy=0;" parent="WIyWlLk6GJQsqaUBKTNV-1" source="mcTvDGQDYKTKNauA4UsY-65" target="mcTvDGQDYKTKNauA4UsY-2" edge="1">
          <mxGeometry relative="1" as="geometry">
            <Array as="points">
              <mxPoint x="370" y="2070" />
              <mxPoint x="1410" y="2070" />
              <mxPoint x="1410" y="285" />
            </Array>
          </mxGeometry>
        </mxCell>
        <mxCell id="mcTvDGQDYKTKNauA4UsY-65" value="Keluar dar menu pengguna&amp;nbsp;&lt;div&gt;biasa toko hijab&lt;/div&gt;" style="shape=parallelogram;perimeter=parallelogramPerimeter;whiteSpace=wrap;html=1;fixedSize=1;" parent="WIyWlLk6GJQsqaUBKTNV-1" vertex="1">
          <mxGeometry x="299" y="1242.6299999999999" width="142" height="64.25" as="geometry" />
        </mxCell>
        <mxCell id="mcTvDGQDYKTKNauA4UsY-80" style="edgeStyle=orthogonalEdgeStyle;rounded=0;orthogonalLoop=1;jettySize=auto;html=1;entryX=1;entryY=0.5;entryDx=0;entryDy=0;" parent="WIyWlLk6GJQsqaUBKTNV-1" source="mcTvDGQDYKTKNauA4UsY-67" target="mcTvDGQDYKTKNauA4UsY-57" edge="1">
          <mxGeometry relative="1" as="geometry">
            <Array as="points">
              <mxPoint x="720" y="1457" />
              <mxPoint x="720" y="915" />
            </Array>
          </mxGeometry>
        </mxCell>
        <mxCell id="mcTvDGQDYKTKNauA4UsY-67" value="&quot;Pilihan tidak valid&quot;" style="shape=parallelogram;perimeter=parallelogramPerimeter;whiteSpace=wrap;html=1;fixedSize=1;" parent="WIyWlLk6GJQsqaUBKTNV-1" vertex="1">
          <mxGeometry x="474.5" y="1430" width="161" height="53.75" as="geometry" />
        </mxCell>
        <mxCell id="mcTvDGQDYKTKNauA4UsY-98" style="edgeStyle=orthogonalEdgeStyle;rounded=0;orthogonalLoop=1;jettySize=auto;html=1;entryX=0.5;entryY=0;entryDx=0;entryDy=0;" parent="WIyWlLk6GJQsqaUBKTNV-1" source="mcTvDGQDYKTKNauA4UsY-71" target="mcTvDGQDYKTKNauA4UsY-77" edge="1">
          <mxGeometry relative="1" as="geometry" />
        </mxCell>
        <mxCell id="mcTvDGQDYKTKNauA4UsY-71" value="Keluar dari program" style="shape=parallelogram;perimeter=parallelogramPerimeter;whiteSpace=wrap;html=1;fixedSize=1;" parent="WIyWlLk6GJQsqaUBKTNV-1" vertex="1">
          <mxGeometry x="27" y="930" width="142" height="40" as="geometry" />
        </mxCell>
        <mxCell id="mcTvDGQDYKTKNauA4UsY-75" style="edgeStyle=orthogonalEdgeStyle;rounded=0;orthogonalLoop=1;jettySize=auto;html=1;exitX=0.5;exitY=0;exitDx=0;exitDy=0;entryX=0;entryY=0.5;entryDx=0;entryDy=0;" parent="WIyWlLk6GJQsqaUBKTNV-1" source="mcTvDGQDYKTKNauA4UsY-73" target="mcTvDGQDYKTKNauA4UsY-2" edge="1">
          <mxGeometry relative="1" as="geometry">
            <Array as="points">
              <mxPoint x="-126" y="285" />
            </Array>
          </mxGeometry>
        </mxCell>
        <mxCell id="mcTvDGQDYKTKNauA4UsY-73" value="&quot;Pilihan tidak valid&quot;" style="shape=parallelogram;perimeter=parallelogramPerimeter;whiteSpace=wrap;html=1;fixedSize=1;" parent="WIyWlLk6GJQsqaUBKTNV-1" vertex="1">
          <mxGeometry x="-210" y="758.75" width="148" height="57.5" as="geometry" />
        </mxCell>
        <mxCell id="mcTvDGQDYKTKNauA4UsY-77" value="End" style="ellipse;whiteSpace=wrap;html=1;" parent="WIyWlLk6GJQsqaUBKTNV-1" vertex="1">
          <mxGeometry x="13" y="2150" width="172" height="80" as="geometry" />
        </mxCell>
        <mxCell id="mcTvDGQDYKTKNauA4UsY-86" style="edgeStyle=orthogonalEdgeStyle;rounded=0;orthogonalLoop=1;jettySize=auto;html=1;exitX=0.5;exitY=1;exitDx=0;exitDy=0;entryX=1;entryY=0.5;entryDx=0;entryDy=0;" parent="WIyWlLk6GJQsqaUBKTNV-1" source="mcTvDGQDYKTKNauA4UsY-84" target="mcTvDGQDYKTKNauA4UsY-2" edge="1">
          <mxGeometry relative="1" as="geometry">
            <Array as="points">
              <mxPoint x="223" y="2070" />
              <mxPoint x="1410" y="2070" />
              <mxPoint x="1410" y="285" />
            </Array>
          </mxGeometry>
        </mxCell>
        <mxCell id="mcTvDGQDYKTKNauA4UsY-84" value="&quot;Username atau passwor salah&quot;&amp;nbsp;&lt;div&gt;atau &quot;Username sudah terdaftar&quot;&lt;/div&gt;" style="shape=parallelogram;perimeter=parallelogramPerimeter;whiteSpace=wrap;html=1;fixedSize=1;" parent="WIyWlLk6GJQsqaUBKTNV-1" vertex="1">
          <mxGeometry x="138.25" y="840" width="170" height="60" as="geometry" />
        </mxCell>
        <mxCell id="mcTvDGQDYKTKNauA4UsY-87" value="yes" style="text;html=1;align=center;verticalAlign=middle;resizable=0;points=[];autosize=1;strokeColor=none;fillColor=none;" parent="WIyWlLk6GJQsqaUBKTNV-1" vertex="1">
          <mxGeometry x="480" y="478" width="40" height="30" as="geometry" />
        </mxCell>
        <mxCell id="mcTvDGQDYKTKNauA4UsY-88" value="no" style="text;html=1;align=center;verticalAlign=middle;resizable=0;points=[];autosize=1;strokeColor=none;fillColor=none;" parent="WIyWlLk6GJQsqaUBKTNV-1" vertex="1">
          <mxGeometry x="280" y="478" width="40" height="30" as="geometry" />
        </mxCell>
        <mxCell id="mcTvDGQDYKTKNauA4UsY-89" value="yes" style="text;html=1;align=center;verticalAlign=middle;resizable=0;points=[];autosize=1;strokeColor=none;fillColor=none;" parent="WIyWlLk6GJQsqaUBKTNV-1" vertex="1">
          <mxGeometry x="190" y="598" width="40" height="30" as="geometry" />
        </mxCell>
        <mxCell id="mcTvDGQDYKTKNauA4UsY-90" value="no" style="text;html=1;align=center;verticalAlign=middle;resizable=0;points=[];autosize=1;strokeColor=none;fillColor=none;" parent="WIyWlLk6GJQsqaUBKTNV-1" vertex="1">
          <mxGeometry x="98.25" y="700" width="40" height="30" as="geometry" />
        </mxCell>
        <mxCell id="mcTvDGQDYKTKNauA4UsY-97" value="" style="edgeStyle=orthogonalEdgeStyle;rounded=0;orthogonalLoop=1;jettySize=auto;html=1;" parent="WIyWlLk6GJQsqaUBKTNV-1" source="mcTvDGQDYKTKNauA4UsY-94" target="mcTvDGQDYKTKNauA4UsY-71" edge="1">
          <mxGeometry relative="1" as="geometry" />
        </mxCell>
        <mxCell id="mcTvDGQDYKTKNauA4UsY-99" value="" style="edgeStyle=orthogonalEdgeStyle;rounded=0;orthogonalLoop=1;jettySize=auto;html=1;" parent="WIyWlLk6GJQsqaUBKTNV-1" edge="1">
          <mxGeometry relative="1" as="geometry">
            <mxPoint x="41" y="787.5" as="sourcePoint" />
            <mxPoint x="-70.99999999999977" y="787.5" as="targetPoint" />
          </mxGeometry>
        </mxCell>
        <mxCell id="mcTvDGQDYKTKNauA4UsY-94" value="Pilihan == 3" style="rhombus;whiteSpace=wrap;html=1;" parent="WIyWlLk6GJQsqaUBKTNV-1" vertex="1">
          <mxGeometry x="40" y="735" width="116" height="105" as="geometry" />
        </mxCell>
        <mxCell id="mcTvDGQDYKTKNauA4UsY-100" value="yes" style="text;html=1;align=center;verticalAlign=middle;resizable=0;points=[];autosize=1;strokeColor=none;fillColor=none;" parent="WIyWlLk6GJQsqaUBKTNV-1" vertex="1">
          <mxGeometry x="90" y="858" width="40" height="30" as="geometry" />
        </mxCell>
        <mxCell id="mcTvDGQDYKTKNauA4UsY-101" value="no" style="text;html=1;align=center;verticalAlign=middle;resizable=0;points=[];autosize=1;strokeColor=none;fillColor=none;" parent="WIyWlLk6GJQsqaUBKTNV-1" vertex="1">
          <mxGeometry x="-27" y="758.75" width="40" height="30" as="geometry" />
        </mxCell>
        <mxCell id="mcTvDGQDYKTKNauA4UsY-103" value="yes" style="text;html=1;align=center;verticalAlign=middle;resizable=0;points=[];autosize=1;strokeColor=none;fillColor=none;" parent="WIyWlLk6GJQsqaUBKTNV-1" vertex="1">
          <mxGeometry x="451" y="748" width="40" height="30" as="geometry" />
        </mxCell>
        <mxCell id="mcTvDGQDYKTKNauA4UsY-104" value="no" style="text;html=1;align=center;verticalAlign=middle;resizable=0;points=[];autosize=1;strokeColor=none;fillColor=none;" parent="WIyWlLk6GJQsqaUBKTNV-1" vertex="1">
          <mxGeometry x="259" y="748" width="40" height="30" as="geometry" />
        </mxCell>
        <mxCell id="mcTvDGQDYKTKNauA4UsY-105" value="yes" style="text;html=1;align=center;verticalAlign=middle;resizable=0;points=[];autosize=1;strokeColor=none;fillColor=none;" parent="WIyWlLk6GJQsqaUBKTNV-1" vertex="1">
          <mxGeometry x="635.5" y="748" width="40" height="30" as="geometry" />
        </mxCell>
        <mxCell id="mcTvDGQDYKTKNauA4UsY-106" value="no" style="text;html=1;align=center;verticalAlign=middle;resizable=0;points=[];autosize=1;strokeColor=none;fillColor=none;" parent="WIyWlLk6GJQsqaUBKTNV-1" vertex="1">
          <mxGeometry x="560" y="830" width="40" height="30" as="geometry" />
        </mxCell>
        <mxCell id="mcTvDGQDYKTKNauA4UsY-109" value="yes" style="text;html=1;align=center;verticalAlign=middle;resizable=0;points=[];autosize=1;strokeColor=none;fillColor=none;" parent="WIyWlLk6GJQsqaUBKTNV-1" vertex="1">
          <mxGeometry x="450" y="1058" width="40" height="30" as="geometry" />
        </mxCell>
        <mxCell id="mcTvDGQDYKTKNauA4UsY-110" value="no" style="text;html=1;align=center;verticalAlign=middle;resizable=0;points=[];autosize=1;strokeColor=none;fillColor=none;" parent="WIyWlLk6GJQsqaUBKTNV-1" vertex="1">
          <mxGeometry x="550" y="1158" width="40" height="30" as="geometry" />
        </mxCell>
        <mxCell id="mcTvDGQDYKTKNauA4UsY-111" value="yes" style="text;html=1;align=center;verticalAlign=middle;resizable=0;points=[];autosize=1;strokeColor=none;fillColor=none;" parent="WIyWlLk6GJQsqaUBKTNV-1" vertex="1">
          <mxGeometry x="450" y="1248" width="40" height="30" as="geometry" />
        </mxCell>
        <mxCell id="mcTvDGQDYKTKNauA4UsY-112" value="no" style="text;html=1;align=center;verticalAlign=middle;resizable=0;points=[];autosize=1;strokeColor=none;fillColor=none;" parent="WIyWlLk6GJQsqaUBKTNV-1" vertex="1">
          <mxGeometry x="550" y="1360" width="40" height="30" as="geometry" />
        </mxCell>
        <mxCell id="mcTvDGQDYKTKNauA4UsY-113" value="yes" style="text;html=1;align=center;verticalAlign=middle;resizable=0;points=[];autosize=1;strokeColor=none;fillColor=none;" parent="WIyWlLk6GJQsqaUBKTNV-1" vertex="1">
          <mxGeometry x="880" y="978" width="40" height="30" as="geometry" />
        </mxCell>
        <mxCell id="mcTvDGQDYKTKNauA4UsY-114" value="no" style="text;html=1;align=center;verticalAlign=middle;resizable=0;points=[];autosize=1;strokeColor=none;fillColor=none;" parent="WIyWlLk6GJQsqaUBKTNV-1" vertex="1">
          <mxGeometry x="810" y="1078" width="40" height="30" as="geometry" />
        </mxCell>
        <mxCell id="mcTvDGQDYKTKNauA4UsY-115" value="yes" style="text;html=1;align=center;verticalAlign=middle;resizable=0;points=[];autosize=1;strokeColor=none;fillColor=none;" parent="WIyWlLk6GJQsqaUBKTNV-1" vertex="1">
          <mxGeometry x="900" y="1148" width="40" height="30" as="geometry" />
        </mxCell>
        <mxCell id="mcTvDGQDYKTKNauA4UsY-116" value="no" style="text;html=1;align=center;verticalAlign=middle;resizable=0;points=[];autosize=1;strokeColor=none;fillColor=none;" parent="WIyWlLk6GJQsqaUBKTNV-1" vertex="1">
          <mxGeometry x="810" y="1258" width="40" height="30" as="geometry" />
        </mxCell>
        <mxCell id="mcTvDGQDYKTKNauA4UsY-118" value="yes" style="text;html=1;align=center;verticalAlign=middle;resizable=0;points=[];autosize=1;strokeColor=none;fillColor=none;" parent="WIyWlLk6GJQsqaUBKTNV-1" vertex="1">
          <mxGeometry x="900" y="1340" width="40" height="30" as="geometry" />
        </mxCell>
        <mxCell id="mcTvDGQDYKTKNauA4UsY-119" value="no" style="text;html=1;align=center;verticalAlign=middle;resizable=0;points=[];autosize=1;strokeColor=none;fillColor=none;" parent="WIyWlLk6GJQsqaUBKTNV-1" vertex="1">
          <mxGeometry x="810" y="1458" width="40" height="30" as="geometry" />
        </mxCell>
        <mxCell id="mcTvDGQDYKTKNauA4UsY-120" value="yes" style="text;html=1;align=center;verticalAlign=middle;resizable=0;points=[];autosize=1;strokeColor=none;fillColor=none;" parent="WIyWlLk6GJQsqaUBKTNV-1" vertex="1">
          <mxGeometry x="900" y="1540" width="40" height="30" as="geometry" />
        </mxCell>
        <mxCell id="mcTvDGQDYKTKNauA4UsY-121" value="no" style="text;html=1;align=center;verticalAlign=middle;resizable=0;points=[];autosize=1;strokeColor=none;fillColor=none;" parent="WIyWlLk6GJQsqaUBKTNV-1" vertex="1">
          <mxGeometry x="810" y="1658" width="40" height="30" as="geometry" />
        </mxCell>
        <mxCell id="mcTvDGQDYKTKNauA4UsY-122" value="yes" style="text;html=1;align=center;verticalAlign=middle;resizable=0;points=[];autosize=1;strokeColor=none;fillColor=none;" parent="WIyWlLk6GJQsqaUBKTNV-1" vertex="1">
          <mxGeometry x="710.75" y="1739" width="40" height="30" as="geometry" />
        </mxCell>
        <mxCell id="mcTvDGQDYKTKNauA4UsY-123" value="no" style="text;html=1;align=center;verticalAlign=middle;resizable=0;points=[];autosize=1;strokeColor=none;fillColor=none;" parent="WIyWlLk6GJQsqaUBKTNV-1" vertex="1">
          <mxGeometry x="810" y="1858" width="40" height="30" as="geometry" />
        </mxCell>
        <mxCell id="mcTvDGQDYKTKNauA4UsY-124" value="&lt;b&gt;&lt;font color=&quot;#ffcce6&quot;&gt;FLOWCHART TOKO HIJAB&lt;/font&gt;&lt;/b&gt;" style="text;html=1;align=center;verticalAlign=middle;resizable=0;points=[];autosize=1;strokeColor=#d79b00;fillColor=#000000;" parent="WIyWlLk6GJQsqaUBKTNV-1" vertex="1">
          <mxGeometry x="315" y="10" width="180" height="30" as="geometry" />
        </mxCell>
      </root>
    </mxGraphModel>
  </diagram>
</mxfile>
